<svg version="1.1" id="Layer_1" xmlns="http://www.w3.org/2000/svg" xmlns:xlink="http://www.w3.org/1999/xlink" x="0px" y="0px"
	 width="141.8px" height="33.1px" viewBox="0 0 141.8 33.1" style="enable-background:new 0 0 141.8 33.1;" xml:space="preserve">
<style type="text/css">
	.st0{fill:#000055;}
	.st1{fill:#000055;stroke:#000055;stroke-width:0.75;stroke-miterlimit:10;}
	.st2{fill:#E00819;}
</style>
<g>
	<polygon class="st0" points="0.5,32.8 17.2,0.3 25.9,0.3 42.5,32.8 28.3,32.8 28.3,27.8 26.7,26.1 26.8,20.4 25.4,18.8 25.4,14.1 
		21.3,9.9 17.2,14.1 17.2,18.9 15.5,20.6 15.5,26.3 13.9,27.8 13.9,32.8 	"/>
	<path class="st0" d="M43,33.1H28L28,28l-1.6-1.8l0.1-5.7l-1.3-1.6v-4.7l-3.8-3.8l-3.9,3.9v4.8l-1.7,1.7v5.6L14.2,28v5.2H0L17,0h9.1
		l0.1,0.2L43,33.1z M28.6,32.5H42L25.8,0.6h-8.4L1,32.5h12.6v-4.8l1.6-1.6v-5.6l1.7-1.7V14l4.5-4.5l4.4,4.4v4.8l1.3,1.6L27,25.9
		l1.6,1.8L28.6,32.5z"/>
	<path class="st0" d="M21,15.5c-2.5,0-4-1-4-1.1l0.4-0.5c0.1,0.1,3.2,2.2,8-0.1l0.3,0.5C23.8,15.2,22.3,15.5,21,15.5z"/>
	<path class="st0" d="M21.1,20.6c-2.5,0-4.1-1.5-4.2-1.5l0.4-0.4c0.1,0.1,3.4,3.1,7.9-0.1l0.4,0.5C24,20.2,22.4,20.6,21.1,20.6z"/>
</g>
<g>
	<path class="st1" d="M47.4,16.5c0.5,0,0.9-0.1,1-0.2c0.1-0.1,0.2-0.3,0.4-0.7c0.4-0.7,0.8-1.8,1.3-3.1l3-7.5h1.3l3.9,9.3
		c0.5,1.2,0.8,1.8,0.9,1.9c0.1,0.1,0.5,0.2,1.1,0.2v0.8c-0.9,0-1.8-0.1-2.7-0.1c-1,0-1.9,0-2.8,0.1v-0.8c0.7,0,1.1-0.1,1.2-0.1
		s0.2-0.1,0.2-0.3c0-0.1-0.1-0.5-0.4-1.1l-0.6-1.4c-0.7,0-1.5,0-2.4,0c-0.8,0-1.5,0-2.1,0l-0.4,1c-0.1,0.3-0.2,0.7-0.4,1.2
		c0,0.1-0.1,0.2-0.1,0.3c0,0.1,0.1,0.2,0.2,0.3c0.1,0.1,0.5,0.1,1.2,0.2v0.8c-0.6,0-1.3-0.1-2.1-0.1c-0.8,0-1.4,0-1.9,0.1V16.5z
		 M53,8.1l-1.8,4.4c0.5,0,1.1,0,1.7,0c0.7,0,1.3,0,1.9,0L53,8.1z"/>
	<path class="st1" d="M62.9,17.3v-0.7l0.5,0c0.4,0,0.7-0.1,0.8-0.2c0.1-0.1,0.2-0.5,0.2-1.2c0-1.4,0.1-3,0.1-4.6c0-0.9,0-1.9,0-3
		c0-0.7,0-1.1-0.1-1.2c0-0.1-0.1-0.1-0.2-0.2C64,6,63.6,6,62.9,5.9V5.2c0.7,0,1.4,0,2,0c0.8,0,1.5,0,2.2,0c0.3,0.7,0.6,1.5,1,2.2
		c0.2,0.5,1.3,2.7,3.1,6.5c2-3.9,3.3-6.8,4.1-8.7c0.7,0,1.3,0,2,0c0.7,0,1.4,0,2.1,0v0.7c-0.8,0-1.2,0.1-1.3,0.2
		C78.1,6.2,78,6.5,78,6.9c0,0.7-0.1,2.1-0.1,4.1c0,1,0,2.1,0,3.2c0,1.1,0.1,1.8,0.1,1.9c0,0.1,0.1,0.2,0.2,0.2
		c0.1,0,0.5,0.1,1.2,0.2v0.7c-0.9,0-1.8-0.1-2.5-0.1c-0.7,0-1.7,0-3,0.1v-0.7l0.5,0c0.4,0,0.7-0.1,0.8-0.2c0.1-0.1,0.2-0.3,0.2-0.7
		c0-0.4,0-1.4,0-2.9V7.6c-0.9,1.8-2,4.1-3.4,7c-0.6,1.2-1,2.1-1.3,2.9h-0.6c-0.4-1-1-2.2-1.7-3.7l-3-6.1v1.2c0,3.2,0,5.5,0,6.7
		c0,0.5,0.1,0.8,0.2,0.9c0.1,0.1,0.5,0.2,1.3,0.2v0.7c-0.6,0-1.2-0.1-1.8-0.1C64.4,17.2,63.6,17.2,62.9,17.3z"/>
	<path class="st1" d="M82.3,16.5c0.5,0,0.9-0.1,1-0.2c0.1-0.1,0.2-0.3,0.4-0.7c0.4-0.7,0.8-1.8,1.3-3.1l3-7.5h1.3l3.9,9.3
		c0.5,1.2,0.8,1.8,0.9,1.9c0.1,0.1,0.5,0.2,1.1,0.2v0.8c-0.9,0-1.8-0.1-2.7-0.1c-1,0-1.9,0-2.8,0.1v-0.8c0.7,0,1.1-0.1,1.2-0.1
		c0.1,0,0.2-0.1,0.2-0.3c0-0.1-0.1-0.5-0.4-1.1l-0.6-1.4c-0.7,0-1.5,0-2.4,0c-0.8,0-1.5,0-2.1,0l-0.4,1c-0.1,0.3-0.2,0.7-0.4,1.2
		c0,0.1-0.1,0.2-0.1,0.3c0,0.1,0.1,0.2,0.2,0.3c0.1,0.1,0.5,0.1,1.2,0.2v0.8c-0.6,0-1.3-0.1-2.1-0.1c-0.8,0-1.4,0-1.9,0.1V16.5z
		 M87.9,8.1l-1.8,4.4c0.5,0,1.1,0,1.7,0c0.7,0,1.3,0,1.9,0L87.9,8.1z"/>
	<path class="st1" d="M97.7,17.3v-0.7c1.9-2.4,4.3-5.8,7.3-10.3l-2.1,0c-1.1,0-2,0-2.6,0.1c-0.3,0-0.4,0.1-0.5,0.1
		c-0.1,0.1-0.1,0.4-0.2,0.9l-0.1,0.6h-0.7c0-0.4,0-0.9,0-1.4l0-0.6c0-0.2,0-0.5-0.1-0.8l0.1-0.1c1.2,0.1,2.3,0.1,3.3,0.1
		c3.6,0,5.7,0,6.3,0v0.6c-2.6,3.5-5,6.9-7.3,10.3c1.2,0,2.3,0.1,3.3,0.1c1.1,0,1.9,0,2.5-0.1c0.2,0,0.3-0.1,0.4-0.1
		c0.1-0.1,0.2-0.5,0.4-1.3l0.1-0.4h0.7c-0.1,0.8-0.2,1.8-0.3,3c-0.3,0-0.7,0-1,0l-6.5-0.1C100.1,17.2,99.1,17.2,97.7,17.3z"/>
	<path class="st1" d="M118,17.5c-2.1,0-3.7-0.5-4.9-1.6c-1.1-1.1-1.7-2.6-1.7-4.5c0-1.3,0.3-2.5,0.8-3.4c0.5-0.9,1.3-1.6,2.3-2.1
		c1-0.5,2.2-0.7,3.7-0.7c1.5,0,2.7,0.2,3.6,0.7s1.6,1.1,2.1,2c0.5,0.9,0.8,1.9,0.8,3.1c0,1.3-0.3,2.5-0.8,3.5
		c-0.6,1-1.3,1.7-2.3,2.3C120.6,17.2,119.4,17.5,118,17.5z M118.3,16.5c1.2,0,2.1-0.4,2.8-1.3c0.7-0.9,1-2.2,1-3.9
		c0-1.8-0.4-3.2-1.2-4.2C120.3,6.4,119.3,6,118,6c-1.2,0-2.2,0.4-2.9,1.2c-0.7,0.8-1,2.1-1,3.8c0,1.2,0.2,2.3,0.6,3.1
		c0.4,0.9,0.8,1.5,1.4,1.8C116.7,16.3,117.4,16.5,118.3,16.5z"/>
	<path class="st1" d="M127.8,17.3v-0.7c0.7,0,1.1-0.1,1.2-0.1c0.1,0,0.1-0.1,0.2-0.2c0.1-0.1,0.1-0.6,0.1-1.5c0-1.4,0-2.4,0-3.1
		l0-3.6c0-1,0-1.5-0.1-1.7c0-0.1-0.1-0.1-0.2-0.2C129,6,128.6,6,127.8,5.9V5.2c0.9,0,1.6,0,2,0c0.5,0,1,0,1.6,0
		c1.3,1.7,2.8,3.5,4.5,5.5c1.1,1.3,2.1,2.4,2.9,3.3v-3.4c0-1.3,0-2.4,0-3.4c0-0.6-0.1-0.9-0.1-1c0-0.1-0.1-0.1-0.2-0.1
		c-0.1,0-0.5-0.1-1.2-0.1V5.2c0.6,0,1.2,0,1.9,0c0.8,0,1.6,0,2.3,0v0.7c-0.6,0-1,0.1-1.2,0.1c-0.1,0-0.1,0.1-0.2,0.1
		c0,0.1-0.1,0.1-0.1,0.2c0,0.1-0.1,0.6-0.1,1.3l0,3.4l0,3.5c0,0.9,0,1.9,0.1,2.8l-0.1,0.1c-0.7-0.1-1.2-0.2-1.5-0.3
		c-1.5-1.6-3.3-3.7-5.4-6.2c-1.1-1.3-1.9-2.3-2.6-3.2v3.3c0,0.9,0,2,0,3.3c0,0.9,0.1,1.5,0.1,1.6c0,0.1,0.1,0.1,0.1,0.1
		c0.1,0.1,0.5,0.1,1.2,0.2v0.7c-0.9,0-1.6-0.1-2-0.1C129.6,17.2,128.9,17.2,127.8,17.3z"/>
</g>
<g>
	<path class="st2" d="M47.9,28.6v-0.3c0.2-0.1,0.4-0.3,0.5-0.3c0.1-0.6,0.1-1.8,0.1-3.5c0-0.7,0-1.4,0-1.9c0-0.5,0-0.8-0.1-0.9
		c0,0,0-0.1-0.1-0.1c-0.1,0-0.3-0.1-0.8-0.1v-0.5c0.5,0,1.2,0,1.9,0l2.6,0c1,0,1.7,0.1,2.2,0.4s0.9,0.6,1.2,1.1
		c0.3,0.5,0.4,1.1,0.4,1.8c0,0.9-0.2,1.7-0.7,2.4c-0.5,0.7-1,1.1-1.7,1.4c-0.7,0.3-1.4,0.4-2.1,0.4l-2,0
		C49,28.6,48.5,28.6,47.9,28.6z M50.1,27.9C50.4,28,50.7,28,51,28c0.8,0,1.4-0.1,1.8-0.3c0.4-0.2,0.8-0.6,1-1.1
		c0.3-0.5,0.4-1.2,0.4-1.9c0-1-0.3-1.8-0.8-2.3c-0.5-0.5-1.2-0.7-2.2-0.7c-0.2,0-0.6,0-1.2,0.1l0,3.3C50,26.5,50,27.4,50.1,27.9z"/>
	<path class="st2" d="M61.9,28.6v-0.5c0.4,0,0.7-0.1,0.7-0.1c0,0,0.1-0.1,0.1-0.1c0-0.1,0.1-0.4,0.1-0.9c0-0.8,0-1.4,0-1.8
		c0-0.6,0-1.3,0-2.3c0-0.7,0-1.1-0.1-1.3c0,0,0-0.1-0.1-0.1c-0.1,0-0.3-0.1-0.7-0.1v-0.5c0.7,0,1.2,0,1.4,0l2.7,0
		c0.6,0,1,0.1,1.3,0.2c0.3,0.1,0.5,0.3,0.6,0.5c0.2,0.2,0.2,0.5,0.2,0.9c0,0.4-0.1,0.8-0.4,1.1c-0.2,0.3-0.7,0.6-1.3,0.9l1.1,1.7
		l0.9,1.3c0.2,0.2,0.3,0.3,0.4,0.4c0.1,0,0.2,0.1,0.4,0.1v0.4l-0.3,0c-0.9,0-1.5,0-1.8,0c-0.3-0.5-0.8-1.2-1.4-2.2l-1.1-1.7
		c0-0.1,0.1-0.1,0.1-0.2c0.1,0,0.2,0,0.3,0c0.3,0,0.7-0.1,1-0.4c0.3-0.3,0.5-0.7,0.5-1.2c0-0.4-0.1-0.8-0.4-1
		c-0.3-0.2-0.6-0.4-1.1-0.4c-0.2,0-0.4,0-0.7,0l0,1.6l0,2c0,0.5,0,1,0.1,1.7c0,0.5,0.1,0.8,0.1,0.9c0,0,0.1,0.1,0.1,0.1
		c0.1,0,0.3,0.1,0.7,0.1v0.5c-0.6,0-1.2,0-1.7,0C63.1,28.6,62.5,28.6,61.9,28.6z"/>
	<path class="st2" d="M75,28.6v-0.5c0.5,0,0.8-0.1,0.8-0.1c0.1-0.1,0.1-0.2,0.1-0.4c0-0.5,0-1.4,0-2.6c0-0.5,0-1.2,0-2.1
		c0-0.6,0-1,0-1.1c0-0.1-0.1-0.1-0.1-0.1c-0.1,0-0.4-0.1-0.8-0.1v-0.5c0.7,0,1.3,0,1.7,0c0.7,0,1.3,0,1.8,0v0.5
		c-0.5,0-0.8,0.1-0.8,0.1c-0.1,0-0.1,0.2-0.1,0.3c0,0.3,0,1,0,2.1c0,1.4,0,2.4,0,2.9s0,0.9,0.1,1c0,0,0.1,0.1,0.1,0.1
		c0.1,0,0.3,0.1,0.7,0.1v0.5l-0.6,0c-0.4,0-0.8,0-1.1,0L75,28.6z"/>
	<path class="st2" d="M84.9,28.6v-0.3c0.2-0.1,0.4-0.2,0.6-0.3c0-1,0.1-2,0.1-3c0-0.8,0-1.6,0-2.3c0-0.5,0-0.8-0.1-0.9
		c0,0-0.1-0.1-0.1-0.1c-0.1,0-0.3-0.1-0.8-0.1v-0.5c0.7,0,1.3,0,1.9,0c0.6,0,1.1,0,1.6,0v0.5c-0.5,0-0.8,0.1-0.8,0.1
		c0,0-0.1,0.1-0.1,0.2c0,0.1,0,0.7,0,1.7l0,2.6c0,0.5,0,1.1,0,1.7c0.5,0,0.8,0,1,0c0.7,0,1.2-0.1,1.7-0.2c0.1-0.3,0.2-0.7,0.3-1.2
		h0.5c-0.1,0.5-0.2,1.2-0.2,1.9c-0.3,0-0.7,0-0.9,0l-1.9,0l-0.9,0C86.2,28.6,85.6,28.6,84.9,28.6z"/>
	<path class="st2" d="M96.8,28.6v-0.3c0.2-0.1,0.4-0.2,0.6-0.3c0-1,0.1-2,0.1-3c0-0.8,0-1.6,0-2.3c0-0.5,0-0.8-0.1-0.9
		c0,0-0.1-0.1-0.1-0.1c-0.1,0-0.3-0.1-0.8-0.1v-0.5c0.7,0,1.3,0,1.9,0c0.6,0,1.1,0,1.6,0v0.5c-0.5,0-0.8,0.1-0.8,0.1
		c0,0-0.1,0.1-0.1,0.2c0,0.1,0,0.7,0,1.7l0,2.6c0,0.5,0,1.1,0,1.7c0.5,0,0.8,0,1,0c0.7,0,1.2-0.1,1.7-0.2c0.1-0.3,0.2-0.7,0.3-1.2
		h0.5c-0.1,0.5-0.2,1.2-0.2,1.9c-0.3,0-0.7,0-0.9,0l-1.9,0l-0.9,0C98.1,28.6,97.5,28.6,96.8,28.6z"/>
	<path class="st2" d="M108.4,28.6v-0.5c0.5,0,0.8-0.1,0.8-0.1c0.1-0.1,0.1-0.2,0.1-0.4c0-0.5,0-1.4,0-2.6c0-0.5,0-1.2,0-2.1
		c0-0.6,0-1,0-1.1c0-0.1-0.1-0.1-0.1-0.1c-0.1,0-0.4-0.1-0.8-0.1v-0.5c0.7,0,1.3,0,1.7,0c0.7,0,1.3,0,1.8,0v0.5
		c-0.5,0-0.8,0.1-0.8,0.1c-0.1,0-0.1,0.2-0.1,0.3c0,0.3,0,1,0,2.1c0,1.4,0,2.4,0,2.9s0,0.9,0.1,1c0,0,0.1,0.1,0.1,0.1
		c0.1,0,0.3,0.1,0.7,0.1v0.5l-0.6,0c-0.4,0-0.8,0-1.1,0L108.4,28.6z"/>
	<path class="st2" d="M117.9,28.6v-0.5c0.4,0,0.7,0,0.8-0.1c0.1,0,0.1-0.1,0.1-0.1c0-0.1,0.1-0.4,0.1-0.9c0-0.9,0-1.5,0-1.9l0-2.3
		c0-0.6,0-0.9-0.1-1c0-0.1-0.1-0.1-0.1-0.1c-0.1,0-0.3-0.1-0.8-0.1v-0.5c0.6,0,1,0,1.2,0c0.3,0,0.6,0,1,0c0.8,1.1,1.8,2.2,2.8,3.4
		c0.7,0.8,1.3,1.5,1.8,2v-2.1c0-0.8,0-1.5,0-2.1c0-0.3,0-0.6-0.1-0.6c0,0-0.1-0.1-0.1-0.1c-0.1,0-0.3,0-0.8-0.1v-0.5
		c0.4,0,0.8,0,1.2,0c0.5,0,1,0,1.4,0v0.5c-0.4,0-0.6,0.1-0.7,0.1c0,0-0.1,0-0.1,0.1c0,0,0,0.1-0.1,0.1c0,0.1,0,0.4,0,0.8l0,2.1
		l0,2.2c0,0.6,0,1.2,0,1.7l-0.1,0.1c-0.4-0.1-0.7-0.1-0.9-0.2c-0.9-1-2-2.3-3.3-3.8c-0.7-0.8-1.2-1.4-1.6-2v2.1c0,0.6,0,1.3,0,2.1
		c0,0.6,0,0.9,0.1,1c0,0,0,0.1,0.1,0.1c0.1,0,0.3,0.1,0.8,0.1v0.5c-0.6,0-1,0-1.2,0C119,28.6,118.5,28.6,117.9,28.6z"/>
	<path class="st2" d="M137.2,26v-0.4c0.7,0,1.2,0,1.7,0c0.5,0,1,0,1.5,0v0.3c-0.2,0-0.3,0.1-0.5,0.2c0,0.4-0.1,0.7-0.1,0.9
		c0,0.2,0,0.5,0.1,1.1c-0.7,0.3-1.3,0.4-1.8,0.5c-0.5,0.1-1,0.1-1.5,0.1c-1.4,0-2.5-0.4-3.2-1.1c-0.8-0.7-1.2-1.6-1.2-2.8
		c0-1.2,0.4-2.1,1.2-2.8s1.9-1.1,3.4-1.1c0.5,0,1,0,1.5,0.1c0.5,0.1,0.9,0.2,1.4,0.4l0,0.1c-0.1,0.5-0.2,1-0.2,1.7h-0.5
		c0-0.3,0-0.6-0.1-0.9c-0.2-0.3-0.5-0.5-0.9-0.6c-0.4-0.1-0.8-0.2-1.3-0.2c-0.9,0-1.7,0.3-2.2,0.8c-0.5,0.6-0.8,1.3-0.8,2.3
		c0,1,0.3,1.9,0.9,2.5c0.6,0.6,1.3,0.9,2.1,0.9c0.4,0,0.9-0.1,1.4-0.3c0-0.3,0-0.5,0-0.8c0-0.6,0-0.9-0.1-0.9
		C138.3,26.1,137.9,26,137.2,26z"/>
</g>
</svg>
